<svg xmlns="http://www.w3.org/2000/svg" id="Icons" viewBox="0 0 60 60"><path d="m59 30c0 16.632-13.99 29.987-30.848 28.943-14.444-.895-26.2-12.651-27.094-27.095-1.045-16.858 12.31-30.848 28.942-30.848 4.568 0 8.893 1.054 12.74 2.941 1.031.506 1.409 1.79.84 2.788l-.004.007c-.526.922-1.674 1.265-2.626.796-3.818-1.88-8.183-2.795-12.79-2.466-12.1.863-21.982 10.568-23.059 22.651-1.34 15.039 10.712 27.662 25.563 27.274 12.718-.332 23.334-10.418 24.265-23.106.242-3.296-.155-6.487-1.099-9.429-.299-.933.136-1.94 1.012-2.378 1.094-.547 2.435 0 2.806 1.165.878 2.761 1.351 5.703 1.351 8.757z" fill="#ff8271"></path><path d="m57.897 10.75c-3.47 1.9-6.879 3.92-10.059 6.3-5.42 3.98-10.409 8.53-14.989 13.46.8 1.14 1.67 2.22 2.6 3.25.29.36.93 1.03 1.28 1.33 1.7 1.78 3.73 3.18 5.78 4.52 1.45.81 1.94 2.69 1.03 4.09-.85 1.3-2.58 1.68-3.9.88-2.82-1.67-5.48-3.63-7.819-5.94-1.08-1.11-2.11-2.27-3.07-3.48-.72.87-1.43 1.74-2.13 2.62-1.23 1.56-2.46 3.21-3.51 4.76-2.66 3.63-8.029-.21-5.4-3.9 2.37-3 4.87-5.89 7.509-8.65-2.39-4.06-4.14-8.5-5.16-13.12-.72-4.35 5.6-5.46 6.39-1.11.69 3.33 1.82 6.6 3.35 9.68 4.77-4.49 9.909-8.57 15.409-12.19 3.47-2.32 7.189-4.26 10.959-6.06.98-.47 2.17-.05 2.64.93s.05 2.15-.91 2.63z" fill="#dd4752"></path><svg xmlns="http://www.w3.org/2000/svg" height="512" viewBox="0 0 520 520" width="512"><g id="_15-Checked" data-name="15-Checked"><path d="m232.019 422.469a10 10 0 0 1 -8.624-4.938c-33.227-56.607-121.81-177.14-122.7-178.351a10 10 0 0 1 1.027-13.039l27.239-26.918a10 10 0 0 1 12.755-1.085l88.222 61.6c59.034-75.7 113.87-128 149.946-158.861 40.616-34.738 66.471-50.377 67.553-51.021a10 10 0 0 1 5.145-1.425h44.068a10 10 0 0 1 6.65 17.469c-125.143 111.464-261.232 349.13-262.592 351.518a10 10 0 0 1 -8.624 5.05z"></path><path d="m230.1 464.132c-99.252 0-180-80.747-180-180s80.748-180 180-180a179.651 179.651 0 0 1 58.491 9.72 10 10 0 1 1 -6.5 18.916 159.712 159.712 0 0 0 -52-8.636c-88.225 0-160 71.776-160 160s71.775 160 160 160 160-71.776 160-160a161.236 161.236 0 0 0 -3.246-32.231 10 10 0 1 1 19.6-4.005 181.324 181.324 0 0 1 3.651 36.236c.004 99.253-80.744 180-179.996 180z"></path></g></svg></svg>