<svg xmlns="http://www.w3.org/2000/svg" width="62" height="24" viewBox="0 0 62 24" fill="none"><path d="M61.5607 13.0607C62.1464 12.4749 62.1464 11.5251 61.5607 10.9393L52.0147 1.3934C51.4289 0.807611 50.4792 0.807611 49.8934 1.3934C49.3076 1.97919 49.3076 2.92893 49.8934 3.51472L58.3787 12L49.8934 20.4853C49.3076 21.0711 49.3076 22.0208 49.8934 22.6066C50.4792 23.1924 51.4289 23.1924 52.0147 22.6066L61.5607 13.0607ZM0 13.5H3.025V10.5H0V13.5ZM9.075 13.5H15.125V10.5H9.075V13.5ZM21.175 13.5H27.225V10.5H21.175V13.5ZM33.275 13.5H39.325V10.5H33.275V13.5ZM45.375 13.5H51.425V10.5H45.375V13.5ZM57.475 13.5H60.5V10.5H57.475V13.5Z" fill="#EF0000"></path></svg>